<svg width="151" height="38" viewBox="0 0 151 38" fill="none" xmlns="http://www.w3.org/2000/svg">
<path d="M112.559 18.3415C112.559 17.7669 112.402 17.3154 112.087 16.987C111.786 16.6449 111.369 16.4739 110.835 16.4739C110.316 16.4739 109.871 16.6039 109.501 16.8639C109.132 17.1238 108.865 17.5617 108.701 18.1773L106.32 17.459C106.539 16.5423 107.039 15.8103 107.819 15.2631C108.598 14.7158 109.652 14.4421 110.979 14.4421C111.882 14.4421 112.662 14.5858 113.319 14.8731C113.975 15.1468 114.482 15.5641 114.837 16.125C115.207 16.686 115.392 17.3838 115.392 18.2184V22.3846C115.392 22.9182 115.631 23.185 116.11 23.185C116.219 23.185 116.329 23.1782 116.438 23.1645C116.561 23.1508 116.664 23.1303 116.746 23.1029L116.582 24.8269C116.418 24.909 116.226 24.9705 116.007 25.0116C115.788 25.0526 115.535 25.0731 115.248 25.0731C114.783 25.0731 114.359 24.9979 113.975 24.8474C113.606 24.6832 113.312 24.4369 113.093 24.1085C112.888 23.7665 112.785 23.3355 112.785 22.8156V22.6514L113.175 22.5693C113.12 23.1303 112.915 23.6023 112.559 23.9854C112.204 24.3685 111.766 24.6558 111.246 24.8474C110.726 25.0253 110.179 25.1142 109.604 25.1142C108.619 25.1142 107.812 24.8747 107.182 24.3959C106.567 23.917 106.259 23.2192 106.259 22.3025C106.259 21.5774 106.485 20.9685 106.936 20.4759C107.388 19.9834 108.079 19.6413 109.009 19.4498L112.867 18.6289V20.2912L110.507 20.7838C110.042 20.8796 109.686 21.0232 109.44 21.2148C109.194 21.4063 109.07 21.6868 109.07 22.0562C109.07 22.412 109.194 22.6856 109.44 22.8772C109.7 23.0687 110.028 23.1645 110.425 23.1645C110.699 23.1645 110.965 23.1303 111.225 23.0619C111.485 22.9798 111.711 22.8566 111.903 22.6924C112.108 22.5146 112.265 22.3025 112.375 22.0562C112.498 21.7963 112.559 21.4884 112.559 21.1327V18.3415Z" fill="#D51F36"/>
<path d="M97.963 25.114C97.1421 25.114 96.4101 24.9087 95.767 24.4983C95.124 24.0741 94.6177 23.4653 94.2483 22.6717C93.8926 21.8645 93.7147 20.9067 93.7147 19.7985C93.7147 18.6628 93.8994 17.6983 94.2688 16.9047C94.6519 16.0974 95.1719 15.4886 95.8286 15.0781C96.4853 14.654 97.231 14.4419 98.0656 14.4419C98.9686 14.4419 99.7075 14.7087 100.282 15.2423C100.857 15.7622 101.233 16.4463 101.411 17.2946L101.124 17.623V10.1731H103.956V24.9087H101.431L101.226 21.7071L101.575 21.8918C101.479 22.5486 101.26 23.1232 100.918 23.6158C100.59 24.0946 100.173 24.4641 99.6664 24.724C99.1602 24.984 98.5924 25.114 97.963 25.114ZM98.8455 22.959C99.3107 22.959 99.7075 22.8359 100.036 22.5896C100.378 22.3297 100.645 21.9602 100.836 21.4814C101.028 20.9888 101.124 20.3936 101.124 19.6958C101.124 19.0391 101.028 18.485 100.836 18.0335C100.658 17.5683 100.398 17.2125 100.056 16.9663C99.728 16.72 99.3381 16.5968 98.8866 16.5968C98.1614 16.5968 97.5868 16.8705 97.1626 17.4178C96.7521 17.9514 96.5469 18.7381 96.5469 19.7779C96.5469 20.8178 96.7453 21.6113 97.1421 22.1586C97.5526 22.6922 98.1204 22.959 98.8455 22.959Z" fill="#D51F36"/>
<path d="M81.7418 24.909V14.6474H84.2661L84.4303 17.7874L84.1019 17.459C84.3345 16.4602 84.7792 15.7077 85.4359 15.2015C86.0927 14.6952 86.8862 14.4421 87.8166 14.4421C88.5144 14.4421 89.1301 14.5858 89.6637 14.8731C90.1973 15.1468 90.6146 15.5572 90.9156 16.1045C91.2303 16.6518 91.3877 17.3359 91.3877 18.1568V24.909H88.5555V18.9367C88.5555 18.1021 88.3913 17.5138 88.0629 17.1717C87.7345 16.8297 87.3104 16.6586 86.7905 16.6586C86.4211 16.6586 86.0653 16.7544 85.7233 16.946C85.3812 17.1238 85.1007 17.418 84.8818 17.8285C84.6766 18.2389 84.574 18.7725 84.574 19.4293V24.909H81.7418Z" fill="#D51F36"/>
<path d="M74.7561 25.1142C73.7026 25.1142 72.7791 24.909 71.9855 24.4985C71.2056 24.0743 70.5968 23.4655 70.1589 22.6719C69.7211 21.8647 69.5022 20.9001 69.5022 19.7782C69.5022 18.6562 69.7211 17.6985 70.1589 16.9049C70.5968 16.0977 71.1988 15.4888 71.965 15.0783C72.7312 14.6542 73.6137 14.4421 74.6125 14.4421C75.6249 14.4421 76.4869 14.6542 77.1984 15.0783C77.9235 15.4888 78.4777 16.0566 78.8608 16.7818C79.2439 17.5069 79.4354 18.3347 79.4354 19.2651C79.4354 19.5114 79.4286 19.7439 79.4149 19.9629C79.4012 20.1681 79.3807 20.346 79.3533 20.4965H71.3493V18.8136H78.1014L76.7263 19.2856C76.7263 18.6973 76.6443 18.1979 76.4801 17.7874C76.3159 17.3769 76.0764 17.0623 75.7618 16.8433C75.4471 16.6244 75.064 16.515 74.6125 16.515C74.1062 16.515 73.6684 16.6381 73.299 16.8844C72.9432 17.1307 72.6696 17.5001 72.4781 17.9926C72.3002 18.4715 72.2113 19.0804 72.2113 19.8192C72.2113 20.5444 72.3139 21.1464 72.5191 21.6252C72.7243 22.1041 73.0185 22.4599 73.4016 22.6924C73.7847 22.925 74.2362 23.0413 74.7561 23.0413C75.3171 23.0413 75.7754 22.925 76.1312 22.6924C76.5006 22.4462 76.7811 22.111 76.9726 21.6868L79.2302 22.5488C79.0249 23.0961 78.6966 23.5613 78.2451 23.9444C77.8072 24.3275 77.2873 24.6216 76.6853 24.8269C76.0833 25.0184 75.4402 25.1142 74.7561 25.1142Z" fill="#D51F36"/>
<path d="M65.8959 24.0461C66.1752 24.1865 66.4417 24.3503 66.6923 24.5357C67.3429 25.0126 67.7786 25.7195 67.9072 26.5066C68.0572 27.3208 67.9835 28.1595 67.6938 28.9365C67.3647 29.8163 66.7733 30.484 65.9668 30.977C65.3486 31.3415 64.662 31.5802 63.9479 31.6787C63.435 31.7518 62.9155 31.7687 62.3989 31.7292C61.3977 31.683 60.4297 31.3631 59.6038 30.8055C58.9954 30.3936 58.5109 29.8288 58.2008 29.1701C58.0155 28.7885 57.8969 28.3791 57.8498 27.9589C57.8304 27.7775 57.7958 27.5985 57.7908 27.4163C57.7908 27.34 57.8144 27.3193 57.8903 27.3193C58.6535 27.3193 59.4174 27.3193 60.1817 27.3193C60.2914 27.3193 60.2922 27.3765 60.2948 27.4519C60.3046 27.693 60.3627 27.9299 60.4658 28.1489C60.5688 28.368 60.7148 28.5649 60.8955 28.7286C61.2466 29.0571 61.6854 29.2811 62.161 29.3747C62.7865 29.5219 63.4423 29.4851 64.0466 29.2687C64.6658 29.0401 65.1476 28.6565 65.3644 28.026C65.4636 27.7393 65.4967 27.4346 65.4614 27.1338C65.4339 26.8155 65.3171 26.5109 65.1239 26.2539C64.8944 25.9642 64.5916 25.7386 64.2457 25.5995C63.7834 25.4131 63.2866 25.3234 62.787 25.336C62.2644 25.3382 61.7438 25.2724 61.2388 25.1405C60.569 24.9768 59.946 24.6651 59.4174 24.2292C58.9465 23.8337 58.5693 23.342 58.3121 22.7885C58.1253 22.3837 57.9904 21.9576 57.9106 21.5201C57.8197 20.9902 57.7914 20.4517 57.8262 19.9154C57.86 19.1854 58.0619 18.4725 58.4168 17.8302C58.5844 17.5306 58.7822 17.2483 59.0073 16.9876C59.4326 16.4905 59.9636 16.091 60.5631 15.817C61.07 15.5856 61.611 15.4343 62.166 15.3688C62.6375 15.3086 63.1145 15.3014 63.5876 15.3473C64.1272 15.3856 64.6508 15.5439 65.1189 15.8104C65.2032 15.8576 65.2404 15.8551 65.3028 15.7756C65.5913 15.4111 65.8934 15.0565 66.1819 14.6903C66.2359 14.6224 66.2536 14.6472 66.2992 14.6812C66.8653 15.1012 67.4305 15.5221 68 15.938C68.0734 15.991 68.0608 16.0283 68.016 16.0838C67.7056 16.469 67.3985 16.8559 67.088 17.2436C66.9606 17.3994 66.9522 17.3985 67.0787 17.5526C67.5334 18.1019 67.8325 18.7591 67.946 19.4581C68.0361 19.9875 68.0424 20.5274 67.9646 21.0587C67.9023 21.5171 67.7709 21.9638 67.5748 22.3842C67.3064 22.9723 66.8704 23.4715 66.3194 23.8216C66.1831 23.9049 66.0416 23.9799 65.8959 24.0461ZM60.2973 20.347C60.2973 20.4216 60.2973 20.497 60.2973 20.5716C60.3724 21.9741 61.3207 22.9815 62.6739 23.0867C63.656 23.1621 64.4777 22.8382 65.0438 22.0305C65.6183 21.2061 65.6782 20.2907 65.3889 19.3562C65.0995 18.4217 64.4431 17.797 63.4484 17.6082C62.4537 17.4193 61.6016 17.6819 60.9368 18.4441C60.4618 18.9875 60.2922 19.6428 60.2973 20.347Z" fill="#D51F36"/>
<path d="M57.3254 24.9087H54.37L53.2823 21.584H48.3157L47.228 24.9087H44.3342L49.1161 11.3634H52.5435L57.3254 24.9087ZM48.9314 19.5111H52.6666L50.799 13.5799L48.9314 19.5111Z" fill="#D51F36"/>
<path d="M148.844 10.173C149.04 10.2561 149.254 10.257 149.457 10.3118C149.988 10.4562 150.494 10.6858 150.958 10.9924C151.004 11.0216 151.009 11.0455 150.989 11.0888C150.703 11.6952 150.418 12.3012 150.133 12.907C150.096 12.9866 150.061 12.9716 149.999 12.9318C149.679 12.7094 149.322 12.5531 148.946 12.4713C148.443 12.3785 147.972 12.4297 147.576 12.8019C147.37 13.0048 147.224 13.2661 147.156 13.5541C147.1 13.7659 147.07 13.9841 147.066 14.2038C147.066 14.3134 147.096 14.3337 147.194 14.3328C148.08 14.3328 148.965 14.3329 149.851 14.3276C149.989 14.3276 150.028 14.3611 150.026 14.5096C150.018 15.1646 150.019 15.8188 150.026 16.4738C150.026 16.6099 149.985 16.6364 149.867 16.6356C149.003 16.6311 148.14 16.6356 147.277 16.6356C147.07 16.6356 147.07 16.6356 147.07 16.8477C147.07 19.5455 147.07 22.2433 147.07 24.9412C147.07 25.0755 147.043 25.1179 146.91 25.1135C146.186 25.1059 145.462 25.1059 144.737 25.1135C144.61 25.1135 144.569 25.0853 144.569 24.9447C144.569 22.2327 144.569 19.5208 144.576 16.8124C144.576 16.6638 144.535 16.6356 144.408 16.6356C143.876 16.6435 143.344 16.6356 142.813 16.6409C142.729 16.6409 142.699 16.6241 142.699 16.5268C142.704 15.8344 142.704 15.1423 142.699 14.4504C142.699 14.3558 142.725 14.3337 142.812 14.3346C143.354 14.3346 143.894 14.3346 144.436 14.3391C144.543 14.3391 144.581 14.3187 144.579 14.1958C144.569 13.6772 144.649 13.1609 144.816 12.6728C144.981 12.1598 145.254 11.692 145.613 11.3035C146.2 10.6777 146.911 10.3613 147.718 10.2322C147.779 10.2225 147.85 10.2322 147.901 10.1783L148.844 10.173Z" fill="#878787"/>
<path d="M123.928 10.1731C124.834 10.1907 125.725 10.297 126.583 10.6222C127.26 10.8666 127.875 11.266 128.384 11.791C128.712 12.1392 128.984 12.5405 129.189 12.9792C129.229 13.0671 129.198 13.0777 129.141 13.1076C128.678 13.3536 128.215 13.6009 127.752 13.8493L127.17 14.1596C127.123 14.185 127.081 14.2193 127.037 14.1437C126.776 13.6955 126.385 13.3993 125.952 13.1585C125.528 12.9224 125.067 12.7653 124.59 12.6945C124.27 12.641 123.944 12.6242 123.62 12.6444C123.017 12.6892 122.427 12.7859 121.91 13.1515C121.446 13.4802 121.218 13.9346 121.259 14.5172C121.292 14.9707 121.557 15.2686 121.923 15.484C122.304 15.7054 122.723 15.8144 123.146 15.9023C123.707 16.0183 124.278 16.0657 124.842 16.1598C125.823 16.3241 126.792 16.5368 127.678 17.0307C128.524 17.4992 129.134 18.1732 129.424 19.14C129.534 19.5266 129.597 19.926 129.612 20.329C129.654 20.9788 129.557 21.6303 129.33 22.237C129.033 23.0095 128.521 23.5992 127.856 24.0509C127.237 24.4569 126.552 24.743 125.835 24.8955C125.524 24.9684 125.209 25.0124 124.895 25.0598C124.663 25.095 124.423 25.0695 124.188 25.0967C123.85 25.1363 123.52 25.0967 123.188 25.0844C122.842 25.0664 122.498 25.0229 122.158 24.9544C121.697 24.8714 121.246 24.7406 120.811 24.5642C120.308 24.3596 119.84 24.0714 119.425 23.7108C118.889 23.2521 118.511 22.6755 118.187 22.0524C118.121 21.925 118.077 21.7844 118.017 21.6508C117.985 21.5752 117.997 21.5348 118.078 21.4935C118.382 21.3388 118.679 21.1736 118.979 21.011C119.361 20.8027 119.74 20.5953 120.124 20.3844C120.193 20.3466 120.238 20.3308 120.275 20.4266C120.627 21.3397 121.289 21.9092 122.153 22.2572C122.658 22.4565 123.192 22.5635 123.733 22.5736C124.345 22.592 124.949 22.5543 125.534 22.3504C125.925 22.2301 126.276 21.9998 126.549 21.6851C126.791 21.4029 126.928 21.0401 126.936 20.6621C126.943 20.2947 126.871 19.9678 126.645 19.6778C126.482 19.4747 126.281 19.3097 126.053 19.1936C125.569 18.9431 125.048 18.7808 124.512 18.7137C124.073 18.6548 123.638 18.5749 123.199 18.5177C122.69 18.4531 122.186 18.3447 121.694 18.1934C121.117 18.0177 120.554 17.7918 120.05 17.4271C119.499 17.0387 119.076 16.4841 118.837 15.8381C118.737 15.5521 118.67 15.2547 118.638 14.9522C118.599 14.6022 118.592 14.249 118.619 13.8976C118.642 13.5905 118.709 13.2888 118.82 13.003C118.948 12.6618 119.122 12.3414 119.337 12.0512C119.626 11.6698 119.981 11.3485 120.385 11.1038C121.207 10.587 122.109 10.3357 123.056 10.2346C123.346 10.1979 123.637 10.1773 123.928 10.1731Z" fill="#878787"/>
<path d="M136.463 25.1109C135.947 25.129 135.432 25.0654 134.936 24.9226C134.363 24.7678 133.826 24.503 133.355 24.143C132.868 23.7667 132.466 23.2932 132.174 22.7529C132 22.4363 131.864 22.1008 131.767 21.7529C131.694 21.4999 131.637 21.2421 131.599 20.9813C131.555 20.6021 131.546 20.2197 131.572 19.8388C131.614 18.9478 131.897 18.0848 132.391 17.3414C132.597 17.0261 132.842 16.7392 133.123 16.488C133.782 15.9055 134.595 15.524 135.465 15.3888C135.86 15.3189 136.262 15.292 136.663 15.3086C137.73 15.3599 138.712 15.6628 139.56 16.3294C140.37 16.9671 140.945 17.8551 141.195 18.8541C141.317 19.3172 141.375 19.7949 141.367 20.2738C141.365 21.0838 141.174 21.8823 140.81 22.6062C140.38 23.4624 139.681 24.1553 138.821 24.5797C138.321 24.827 137.783 24.9895 137.229 25.0604C136.975 25.0979 136.719 25.1148 136.463 25.1109ZM133.892 20.2097C133.888 20.4276 133.908 20.6452 133.951 20.8588C134.089 21.5382 134.394 22.1191 134.97 22.5317C135.491 22.9051 136.086 23.0124 136.712 22.9612C137.444 22.9003 138.045 22.5862 138.479 21.9821C139.234 20.9261 139.181 19.3468 138.361 18.3397C137.423 17.1891 135.645 17.1058 134.646 18.173C134.114 18.7443 133.904 19.4422 133.896 20.2097H133.892Z" fill="#878787"/>
<path d="M6.44791 13.4185C6.25562 13.5245 6.07323 13.6425 5.90105 13.7707C5.88883 13.7798 5.87639 13.7886 5.86427 13.7978C5.7515 13.8835 5.64349 13.9739 5.53997 14.0682C5.53248 14.075 5.52487 14.0817 5.51742 14.0886C5.50168 14.1031 5.48623 14.1179 5.47071 14.1326C5.45757 14.1451 5.44423 14.1573 5.43125 14.1699C5.38751 14.2123 5.34482 14.2557 5.30292 14.2996C5.29204 14.311 5.2812 14.3224 5.27044 14.3339C5.25997 14.3451 5.24965 14.3565 5.2393 14.3678C5.2249 14.3835 5.21051 14.3991 5.19635 14.415C5.15346 14.4631 5.11171 14.512 5.07097 14.5616C5.06613 14.5675 5.06129 14.5734 5.05648 14.5793C5.04132 14.598 5.0265 14.6168 5.01164 14.6357C5.00241 14.6474 4.99311 14.6591 4.98399 14.6709C4.96837 14.6911 4.95282 14.7113 4.93755 14.7318C4.93284 14.7381 4.92827 14.7445 4.92359 14.7509C4.90752 14.7726 4.89148 14.7944 4.8758 14.8164C4.86714 14.8285 4.85884 14.8409 4.8503 14.8531C4.83958 14.8685 4.82888 14.8838 4.81835 14.8993C4.80824 14.9142 4.79795 14.9289 4.78802 14.9439C4.77416 14.9648 4.76072 14.9859 4.74721 15.007C4.74169 15.0156 4.73603 15.0241 4.73057 15.0327C4.71556 15.0565 4.70084 15.0804 4.68627 15.1044C4.68184 15.1117 4.67751 15.1191 4.67312 15.1264C4.66092 15.1468 4.64875 15.1671 4.63687 15.1876C4.62631 15.2059 4.61604 15.2243 4.60573 15.2427C4.59778 15.2569 4.58991 15.2711 4.58211 15.2854C4.57386 15.3004 4.56576 15.3156 4.55768 15.3307C4.54721 15.3504 4.53672 15.37 4.52654 15.3898C4.5213 15.4 4.51613 15.4102 4.51097 15.4204C4.49947 15.4432 4.48799 15.4659 4.47687 15.4889C4.47364 15.4955 4.47067 15.5023 4.46748 15.509C4.45627 15.5324 4.445 15.5558 4.43419 15.5793C4.42312 15.6035 4.41235 15.6278 4.4017 15.6521C4.39727 15.6622 4.39264 15.6723 4.38828 15.6824C4.36337 15.7404 4.3399 15.799 4.31741 15.858C4.31379 15.8675 4.31022 15.877 4.30667 15.8864C4.30119 15.9011 4.29589 15.9158 4.29056 15.9305C4.26936 15.989 4.24923 16.0478 4.23043 16.1071C4.20847 16.1763 4.18812 16.2461 4.16949 16.3163C4.12882 16.4694 4.09652 16.6248 4.07203 16.7818C4.06774 16.8093 4.0632 16.8368 4.05942 16.8644C4.04724 16.9533 4.03809 17.0427 4.03123 17.1324C4.02967 17.1528 4.02795 17.1732 4.02666 17.1936C4.02538 17.2141 4.02445 17.2347 4.02344 17.2553C4.02267 17.2712 4.02163 17.287 4.02103 17.3028C4.02004 17.3287 4.01969 17.3545 4.01915 17.3804C4.01892 17.3915 4.01849 17.4026 4.01834 17.4137C4.01823 17.4222 4.01814 17.4307 4.01807 17.4392V17.5122C4.01813 17.5189 4.01826 17.5255 4.01834 17.5321C4.01862 17.5534 4.0191 17.5747 4.01968 17.596C4.02007 17.6099 4.02052 17.6237 4.02103 17.6376C4.02197 17.6632 4.02313 17.6888 4.02452 17.7144C4.02512 17.7256 4.02571 17.7368 4.0264 17.748C4.02784 17.7714 4.02968 17.7948 4.0315 17.8183C4.03295 17.837 4.03437 17.8557 4.03606 17.8744C4.03762 17.8917 4.0394 17.9089 4.04116 17.9262C4.04302 17.9444 4.04499 17.9625 4.04707 17.9807C4.04945 18.0015 4.05191 18.0222 4.05458 18.043C4.05687 18.0607 4.05907 18.0784 4.06156 18.0961C4.06423 18.115 4.06698 18.1339 4.06989 18.1528C4.07315 18.1739 4.07679 18.195 4.08036 18.2161C4.08296 18.2315 4.08564 18.2469 4.08841 18.2623C4.09227 18.2838 4.0963 18.3053 4.10049 18.3268C4.10409 18.3452 4.10793 18.3636 4.11177 18.3821C4.11458 18.3956 4.11742 18.4091 4.12036 18.4226C4.12568 18.447 4.13099 18.4715 4.13673 18.4959C4.1407 18.5127 4.14491 18.5295 4.14908 18.5464C4.15389 18.5658 4.15877 18.5852 4.16385 18.6046C4.1692 18.625 4.17484 18.6454 4.18049 18.6658C4.18512 18.6825 4.18962 18.6993 4.19445 18.716C4.2005 18.7369 4.20688 18.7577 4.21324 18.7786C4.21868 18.7964 4.22422 18.8142 4.22989 18.832C4.2342 18.8455 4.2386 18.859 4.24304 18.8725C4.25114 18.8971 4.25919 18.9218 4.26774 18.9464C4.27236 18.9596 4.27722 18.9728 4.28197 18.9861C4.29023 19.0091 4.29881 19.0321 4.30747 19.0551C4.31464 19.0741 4.32205 19.093 4.32949 19.112C4.33605 19.1287 4.34258 19.1455 4.34935 19.1622C4.37586 19.2275 4.4041 19.2926 4.43392 19.3574C4.47184 19.4398 4.51218 19.5219 4.55553 19.6033C4.59779 19.6826 4.64229 19.7601 4.68842 19.836C4.6914 19.8409 4.69428 19.8459 4.69728 19.8508C4.74463 19.9281 4.79403 20.0035 4.8452 20.0771V30.1876C4.8452 31.0985 5.58369 31.837 6.49462 31.837H19.3901C19.4251 31.9023 19.461 31.9671 19.4986 32.0311C19.532 32.0884 19.5668 32.1447 19.6019 32.2005C19.6158 32.2226 19.6294 32.2448 19.6435 32.2666C19.6549 32.2841 19.6666 32.3013 19.6782 32.3187C19.6917 32.3391 19.7054 32.3594 19.7192 32.3796C19.7303 32.3959 19.7415 32.412 19.7528 32.4282C19.768 32.45 19.7832 32.4718 19.7987 32.4934C19.8112 32.5109 19.8239 32.5282 19.8365 32.5455C19.8494 32.563 19.8625 32.5803 19.8755 32.5976C19.8908 32.6179 19.9061 32.6382 19.9216 32.6583C19.933 32.673 19.9445 32.6877 19.956 32.7023C19.9701 32.7202 19.9841 32.7382 19.9984 32.756C20.0167 32.7786 20.0354 32.8008 20.054 32.8231C20.0663 32.8379 20.0784 32.8528 20.0908 32.8674C20.0948 32.8722 20.099 32.8768 20.1031 32.8816C20.1437 32.9291 20.185 32.9758 20.2269 33.0217C20.2991 33.101 20.3729 33.1782 20.4489 33.2529C20.4672 33.2709 20.4857 33.2886 20.5042 33.3063C20.5157 33.3173 20.5273 33.3282 20.5388 33.3391C20.5609 33.3599 20.583 33.3806 20.6054 33.4011C20.6163 33.411 20.6272 33.421 20.6382 33.4309C20.6596 33.4502 20.6812 33.4693 20.7029 33.4883C20.7134 33.4976 20.7239 33.5068 20.7345 33.516C20.7575 33.5358 20.7806 33.5554 20.8038 33.5748C20.8138 33.5831 20.8239 33.5912 20.8339 33.5995C20.8571 33.6187 20.8804 33.6378 20.9039 33.6567C20.9113 33.6625 20.9186 33.6683 20.926 33.6741C20.9514 33.6943 20.9769 33.7145 21.0027 33.7342C21.0198 33.7473 21.0371 33.76 21.0543 33.7729C21.1653 33.8561 21.2791 33.9353 21.3952 34.0105C21.4054 34.0171 21.4154 34.0239 21.4256 34.0304C21.4537 34.0483 21.482 34.0658 21.5104 34.0832C21.5172 34.0874 21.524 34.0914 21.5308 34.0956C21.5605 34.1137 21.5902 34.1317 21.6202 34.1493C21.6256 34.1524 21.6309 34.1556 21.6363 34.1587C21.8394 34.2771 22.0491 34.3835 22.264 34.4779C22.2762 34.4832 22.2882 34.489 22.3005 34.4943C22.3748 34.5264 22.4499 34.5569 22.5254 34.5861H4.29539C3.08082 34.586 2.09617 33.6014 2.09617 32.3868V13.4185H6.44791ZM35.6343 32.3868C35.6343 33.6014 34.6497 34.586 33.4351 34.5861H27.0681C27.1644 34.5483 27.2603 34.5082 27.3553 34.4653L27.4981 34.3984C27.5428 34.3769 27.5869 34.3546 27.6307 34.3321C27.6383 34.3283 27.6458 34.3244 27.6533 34.3206C27.6875 34.3028 27.7215 34.2849 27.7553 34.2666C27.7669 34.2603 27.7784 34.2539 27.7899 34.2475C27.8176 34.2323 27.845 34.2169 27.8724 34.2014C27.8896 34.1915 27.9068 34.1816 27.9239 34.1716C27.9536 34.1543 27.9832 34.137 28.0125 34.1192C28.0283 34.1096 28.044 34.0999 28.0597 34.0902C28.0918 34.0704 28.1235 34.0504 28.155 34.0301C28.1682 34.0216 28.1812 34.0129 28.1942 34.0043C28.2168 33.9895 28.2393 33.9746 28.2616 33.9595C28.2792 33.9476 28.2968 33.9358 28.3142 33.9238C28.3371 33.908 28.3596 33.892 28.3822 33.876C28.3966 33.8658 28.4111 33.8557 28.4254 33.8454C28.4611 33.8195 28.4967 33.7935 28.5317 33.767C28.538 33.7623 28.544 33.7573 28.5502 33.7525C28.5818 33.7284 28.6132 33.7041 28.6442 33.6795C28.6524 33.6729 28.6604 33.6662 28.6686 33.6596C28.6935 33.6396 28.7182 33.6195 28.7427 33.5992C28.7584 33.5862 28.7739 33.5731 28.7894 33.56C28.8058 33.5461 28.8221 33.5322 28.8383 33.5181C28.9407 33.4294 29.0398 33.3376 29.1352 33.243C29.1466 33.2317 29.1578 33.2202 29.169 33.2089C29.1907 33.187 29.2124 33.1652 29.2337 33.1431C29.2396 33.137 29.2453 33.1307 29.2512 33.1246C29.3498 33.0211 29.4443 32.9146 29.5347 32.8051C29.543 32.795 29.5514 32.7849 29.5596 32.7748C29.699 32.6035 29.828 32.4252 29.9465 32.2411C29.9518 32.2328 29.957 32.2244 29.9623 32.2161C30.0411 32.0923 30.1153 31.9659 30.1843 31.837H31.2359C32.1468 31.837 32.8853 31.0985 32.8853 30.1876V16.1675H31.6413C31.6695 16.145 31.6973 16.1221 31.725 16.0991C31.744 16.0834 31.7627 16.0675 31.7814 16.0515C31.8002 16.0356 31.819 16.0197 31.8375 16.0035C31.8464 15.9957 31.8552 15.9877 31.8641 15.9799C31.889 15.9578 31.9137 15.9355 31.9382 15.913C31.9447 15.907 31.9513 15.9011 31.9578 15.895C31.966 15.8874 31.974 15.8796 31.9822 15.8719C32.0248 15.8319 32.0667 15.7913 32.1079 15.7501C32.1145 15.7434 32.1211 15.7369 32.1277 15.7302C32.1735 15.6839 32.2185 15.6369 32.2625 15.5893C32.2683 15.583 32.2739 15.5765 32.2797 15.5702C32.317 15.5293 32.3537 15.488 32.3897 15.4462C32.3982 15.4363 32.4068 15.4266 32.4152 15.4166C32.4562 15.3684 32.4961 15.3193 32.5352 15.2698C32.5404 15.2632 32.5457 15.2568 32.5508 15.2502C32.6334 15.1448 32.7122 15.0369 32.7865 14.9264C32.7903 14.9208 32.794 14.9152 32.7978 14.9095C32.8715 14.7991 32.9411 14.6863 33.0064 14.5713C33.0093 14.5662 33.0119 14.561 33.0147 14.556C33.1825 14.2581 33.3218 13.9461 33.4306 13.6239C33.4325 13.6182 33.4343 13.6126 33.4362 13.6069C33.4571 13.5445 33.477 13.4817 33.4955 13.4185H35.6343V32.3868ZM11.5481 13.6507C11.4663 13.5952 11.3827 13.5425 11.2976 13.492C11.2862 13.4853 11.2748 13.4783 11.2633 13.4716C11.2322 13.4536 11.201 13.4359 11.1696 13.4185H12.2257L11.5481 13.6507Z" fill="#878787"/>
<path d="M7.83987 8.13462C7.83987 9.45068 8.31745 10.6888 9.12311 11.6353H2.09617V8.3365C2.0962 7.12193 3.08082 6.13727 4.29539 6.13727H7.83987V8.13462ZM19.9356 8.13462C19.9356 9.003 20.1436 9.8374 20.5166 10.5765L17.4285 11.6353H16.0668C16.1383 11.3972 16.1753 11.1547 16.1753 10.921V9.99344C16.1752 8.9056 15.4841 8.22139 15.0096 7.9083C14.6306 7.65818 14.1879 7.49513 13.7385 7.43474V6.13727H19.9356V8.13462ZM33.4351 6.13727C34.6497 6.13727 35.6343 7.12193 35.6343 8.3365V11.6353H33.7044C33.6642 10.8858 33.4635 10.129 33.0821 9.40953L33.0818 9.409C31.6967 6.79792 28.5086 5.76309 25.8342 6.85647V6.13727H33.4351Z" fill="#D51F36"/>
<path d="M13.726 1.04806C15.4853 1.04806 16.9115 2.55201 16.9115 4.40722V5.24701H14.8882V4.83013C14.8882 3.93495 14.2 3.20935 13.3511 3.20932C12.5022 3.20932 11.8141 3.93493 11.8141 4.83013V7.71171C11.8141 8.6069 12.5022 9.33252 13.3511 9.33252C13.7476 9.33251 14.2507 9.59711 14.2507 9.99356V10.9211C14.2507 11.226 14.0309 11.4938 13.726 11.4938H12.9496C11.1903 11.4938 9.76405 9.98983 9.76405 8.13462V4.40722C9.76405 2.55201 11.1903 1.04806 12.9496 1.04806H13.726Z" fill="#878787"/>
<path d="M25.8217 1.04806C27.581 1.04806 29.0072 2.55201 29.0072 4.40722V5.24701H26.9839V4.83013C26.9839 3.93495 26.2957 3.20935 25.4468 3.20932C24.5979 3.20932 23.9098 3.93493 23.9098 4.83013V7.71171C23.9098 8.6069 24.5979 9.33252 25.4468 9.33252C25.4582 9.33252 25.4695 9.33239 25.4808 9.33213C25.8633 9.32337 26.3464 9.57705 26.3464 9.95957V10.9211C26.3464 11.226 26.1266 11.4938 25.8217 11.4938H25.0453C23.286 11.4938 21.8598 9.98983 21.8598 8.13462V4.40722C21.8598 2.55201 23.286 1.04806 25.0453 1.04806H25.8217Z" fill="#878787"/>
<path d="M31.3821 10.3108C30.4474 8.54866 28.194 7.84269 26.3466 8.73321C25.8819 8.95155 25.4691 9.26746 25.1361 9.65964C24.8031 10.0518 24.5577 10.5112 24.4162 11.0068C24.3904 11.0987 24.3426 11.1829 24.2771 11.252C24.2115 11.3212 24.1302 11.3733 24.0401 11.4037L11.1116 15.8352C10.6906 15.3141 10.1068 14.9512 9.45493 14.8051C8.80303 14.659 8.12116 14.7383 7.51972 15.0302C6.10596 15.7118 5.53957 17.3572 6.25419 18.6991C6.96882 20.041 8.69453 20.5891 10.1072 19.9064C10.1808 19.8709 10.2632 19.8578 10.3441 19.8686C10.4251 19.8795 10.5012 19.9139 10.5629 19.9676L20.4703 28.795C20.5209 28.8392 20.5617 28.8936 20.5899 28.9547C20.6181 29.0158 20.6332 29.0823 20.634 29.1496C20.6381 29.821 20.819 30.4792 21.1584 31.0574C22.2126 32.8674 24.6021 33.5978 26.5634 32.7117C28.6829 31.7545 29.5502 29.3253 28.4949 27.3419C28.2147 26.8166 27.8212 26.3608 27.3433 26.0078C27.2754 25.9588 27.2213 25.8931 27.186 25.8169C27.1507 25.7408 27.1356 25.6568 27.142 25.5731L28.0192 15.9775C28.0352 15.8449 28.0956 15.7218 28.1905 15.6285C28.2854 15.5351 28.4092 15.477 28.5413 15.4638C28.9524 15.4105 29.3524 15.2915 29.7261 15.1114C31.5757 14.2231 32.3158 12.0718 31.3821 10.3108ZM23.6905 25.3129C23.5119 25.3599 23.3364 25.4182 23.1651 25.4875C23.0864 25.5196 23.0013 25.5329 22.9166 25.5261C22.8319 25.5194 22.7499 25.4928 22.6772 25.4486L11.7256 18.6668C11.6571 18.6256 11.6039 18.563 11.5743 18.4884C11.5447 18.4139 11.5404 18.3316 11.5619 18.2544C11.6704 17.9048 11.705 17.5364 11.6636 17.1726L24.8532 14.3221C24.9512 14.3022 25.0526 14.3062 25.1488 14.3337C25.245 14.3611 25.3333 14.4113 25.4063 14.4799C25.5525 14.6173 25.7097 14.7422 25.8764 14.8535C25.9688 14.9146 26.0409 15.0021 26.0833 15.1048C26.1257 15.2074 26.1365 15.3205 26.1143 15.4294L24.0655 24.9383C24.0429 25.0291 23.996 25.112 23.9299 25.178C23.8638 25.244 23.781 25.2907 23.6905 25.3129Z" fill="#D51F36"/>
</svg>
