<svg width="1920" height="1182" viewBox="0 0 1920 1182" fill="none" xmlns="http://www.w3.org/2000/svg">
<g clip-path="url(#clip0_189_2515)">
<path d="M1086.7 1267.3L1005.03 1182.15C1006.08 1181.59 1006.94 1180.73 1007.51 1179.67C1008.08 1178.62 1008.33 1177.43 1008.23 1176.24C1008.16 1175.43 1007.94 1174.65 1007.57 1173.93C1007.21 1173.21 1006.7 1172.57 1006.08 1172.05C1005.46 1171.53 1004.75 1171.13 1003.98 1170.89C1003.21 1170.64 1002.4 1170.55 1001.59 1170.62C1000.43 1170.72 999.317 1171.14 998.387 1171.85C997.458 1172.55 996.749 1173.51 996.346 1174.61L871.577 1120.36C871.385 1118.79 870.589 1117.35 869.357 1116.35C868.125 1115.36 866.553 1114.87 864.974 1115.01C864.168 1115.08 863.383 1115.3 862.663 1115.67C861.944 1116.03 861.305 1116.54 860.782 1117.16C860.26 1117.78 859.865 1118.49 859.621 1119.26C859.376 1120.03 859.287 1120.84 859.358 1121.65C859.428 1122.56 859.706 1123.44 860.172 1124.22L782.512 1183.97C781.891 1183.38 781.154 1182.93 780.349 1182.65C779.544 1182.36 778.688 1182.25 777.837 1182.32C776.687 1182.41 775.587 1182.83 774.664 1183.52C773.741 1184.21 773.032 1185.15 772.62 1186.23L632.757 1157.8C632.771 1157.56 632.771 1157.32 632.755 1157.09C632.693 1156.28 632.471 1155.49 632.104 1154.77C631.736 1154.05 631.229 1153.41 630.612 1152.89C629.995 1152.37 629.28 1151.97 628.509 1151.72C627.738 1151.48 626.926 1151.39 626.12 1151.46C624.728 1151.57 623.416 1152.16 622.404 1153.12L561.189 1105C561.808 1103.93 562.085 1102.69 561.983 1101.45C561.845 1099.83 561.068 1098.32 559.823 1097.27C558.577 1096.21 556.965 1095.69 555.338 1095.83C553.866 1095.95 552.488 1096.6 551.46 1097.66L448.421 1023.2C448.956 1022.17 449.189 1021.01 449.093 1019.86C449.03 1019.05 448.808 1018.27 448.439 1017.55C448.071 1016.83 447.564 1016.19 446.947 1015.67C446.33 1015.15 445.615 1014.75 444.845 1014.51C444.075 1014.26 443.263 1014.17 442.458 1014.24C441.652 1014.31 440.867 1014.53 440.148 1014.9C439.428 1015.27 438.789 1015.77 438.267 1016.39C437.745 1017.01 437.35 1017.72 437.105 1018.49C436.861 1019.26 436.772 1020.07 436.842 1020.88C436.944 1022.12 437.421 1023.3 438.21 1024.26L381.559 1086.55C380.402 1085.78 379.016 1085.42 377.631 1085.55C376.236 1085.66 374.921 1086.24 373.906 1087.2C372.891 1088.17 372.236 1089.45 372.051 1090.83L170.845 1092.89L170.848 1093.8C170.785 1093 170.563 1092.21 170.194 1091.49C169.826 1090.77 169.318 1090.13 168.701 1089.61C168.084 1089.09 167.37 1088.69 166.6 1088.45C165.829 1088.2 165.018 1088.11 164.213 1088.19C163.407 1088.25 162.622 1088.47 161.902 1088.84C161.183 1089.21 160.543 1089.72 160.021 1090.33C159.499 1090.95 159.104 1091.66 158.86 1092.43C158.615 1093.2 158.526 1094.02 158.597 1094.82C158.664 1095.53 158.849 1096.21 159.144 1096.86L105.942 1135.25C105.314 1134.64 104.56 1134.16 103.732 1133.87C102.904 1133.57 102.022 1133.45 101.145 1133.53C100.312 1133.59 99.5027 1133.83 98.7659 1134.23C98.029 1134.62 97.3807 1135.16 96.8606 1135.81L30.3853 1096.98C30.7446 1096.09 30.8913 1095.13 30.8141 1094.18C30.7523 1093.37 30.5312 1092.59 30.1633 1091.87C29.7955 1091.15 29.2883 1090.51 28.6712 1089.98C28.0541 1089.46 27.3393 1089.06 26.5682 1088.82C25.7972 1088.57 24.9854 1088.48 24.1795 1088.56C23.3727 1088.62 22.5866 1088.84 21.8664 1089.21C21.1462 1089.58 20.5065 1090.09 19.9842 1090.71C19.4619 1091.32 19.0672 1092.04 18.8233 1092.81C18.5795 1093.58 18.4911 1094.39 18.5634 1095.2C18.6764 1096.66 19.3149 1098.03 20.3602 1099.05L-34.7088 1174.08C-35.7461 1173.53 -36.9172 1173.29 -38.0856 1173.39C-38.8915 1173.45 -39.6768 1173.67 -40.3962 1174.04C-41.1157 1174.41 -41.7547 1174.92 -42.2769 1175.53C-42.7991 1176.15 -43.1938 1176.86 -43.4383 1177.64C-43.6828 1178.41 -43.7722 1179.22 -43.7012 1180.02C-43.5843 1181.5 -42.9313 1182.89 -41.864 1183.93C-40.7966 1184.97 -39.3881 1185.58 -37.9024 1185.65L-91.1837 1317.51C-92.6335 1317.83 -93.9178 1318.67 -94.7973 1319.86C-95.6769 1321.06 -96.0915 1322.53 -95.9639 1324.01C-95.9008 1324.82 -95.6791 1325.6 -95.3107 1326.32C-94.9423 1327.04 -94.4345 1327.68 -93.8176 1328.2C-93.2006 1328.72 -92.4865 1329.12 -91.7161 1329.36C-90.9457 1329.61 -90.1345 1329.7 -89.3293 1329.63C-88.5235 1329.56 -87.7382 1329.34 -87.0187 1328.97C-86.2993 1328.6 -85.6597 1328.1 -85.1375 1327.48C-84.6153 1326.86 -84.2206 1326.15 -83.9761 1325.38C-83.7317 1324.61 -83.6423 1323.8 -83.7132 1322.99C-83.7826 1322.13 -84.032 1321.3 -84.4451 1320.55L59.3163 1325.34C59.9434 1325.95 60.6918 1326.41 61.512 1326.7C62.3322 1326.99 63.2051 1327.1 64.0722 1327.03C65.5418 1326.91 66.9196 1326.27 67.952 1325.22C68.9844 1324.17 69.6022 1322.78 69.6913 1321.3L184.809 1311.75C185.138 1313.19 185.976 1314.46 187.169 1315.33C188.362 1316.2 189.828 1316.61 191.298 1316.48C192.515 1316.38 193.674 1315.92 194.628 1315.16C195.581 1314.4 196.284 1313.36 196.647 1312.2L286.805 1326.61C286.796 1326.8 286.796 1326.99 286.807 1327.18C286.87 1327.99 287.092 1328.78 287.461 1329.49C287.829 1330.21 288.337 1330.85 288.953 1331.38C289.57 1331.9 290.285 1332.29 291.055 1332.54C291.825 1332.78 292.637 1332.87 293.442 1332.8C294.892 1332.68 296.253 1332.05 297.281 1331.03C298.309 1330 298.936 1328.63 299.051 1327.18L519.823 1440.19C519.555 1440.99 519.45 1441.83 519.515 1442.67C519.578 1443.47 519.8 1444.26 520.169 1444.98C520.537 1445.7 521.044 1446.34 521.661 1446.86C522.278 1447.38 522.993 1447.78 523.763 1448.02C524.534 1448.26 525.345 1448.35 526.15 1448.28C526.957 1448.22 527.743 1448 528.464 1447.63C529.184 1447.26 529.825 1446.76 530.348 1446.14C530.871 1445.52 531.267 1444.81 531.512 1444.04C531.757 1443.27 531.847 1442.45 531.776 1441.65C531.676 1440.44 531.222 1439.3 530.47 1438.35L650.822 1309.28C651.995 1310.09 653.417 1310.47 654.842 1310.35C656.145 1310.25 657.38 1309.72 658.364 1308.86L734.695 1365.25C733.99 1366.38 733.668 1367.7 733.779 1369.02C733.842 1369.82 734.065 1370.61 734.433 1371.33C734.801 1372.05 735.309 1372.69 735.926 1373.21C736.543 1373.73 737.257 1374.13 738.027 1374.37C738.798 1374.62 739.609 1374.7 740.414 1374.63C741.51 1374.54 742.561 1374.15 743.456 1373.51C744.351 1372.87 745.057 1372.01 745.499 1371L852.288 1361.27C852.248 1361.68 852.25 1362.1 852.292 1362.51C852.43 1364.14 853.207 1365.64 854.452 1366.7C855.698 1367.75 857.31 1368.27 858.937 1368.14C859.743 1368.07 860.528 1367.85 861.247 1367.48C861.967 1367.11 862.606 1366.61 863.128 1365.99C863.651 1365.37 864.045 1364.66 864.29 1363.89C864.534 1363.12 864.624 1362.31 864.553 1361.5C864.552 1361.28 864.5 1361.06 864.459 1360.85L978.619 1354.7C979.179 1355.77 980.043 1356.66 981.102 1357.24C982.162 1357.82 983.37 1358.07 984.574 1357.97C985.38 1357.9 986.167 1357.68 986.887 1357.32C987.608 1356.95 988.249 1356.44 988.772 1355.82C989.295 1355.21 989.691 1354.49 989.936 1353.72C990.181 1352.95 990.271 1352.14 990.2 1351.33C990.116 1350.31 989.774 1349.32 989.206 1348.46C988.638 1347.6 987.863 1346.9 986.952 1346.42L1085.62 1279.4C1086.27 1279.56 1086.94 1279.62 1087.61 1279.56C1088.41 1279.49 1089.2 1279.27 1089.92 1278.9C1090.64 1278.53 1091.28 1278.03 1091.8 1277.41C1092.32 1276.79 1092.72 1276.08 1092.96 1275.31C1093.21 1274.54 1093.29 1273.73 1093.22 1272.92C1093.1 1271.31 1092.34 1269.82 1091.12 1268.77C1089.9 1267.72 1088.31 1267.19 1086.7 1267.3ZM379.455 1097.67L383.619 1108.44L338.325 1176.9L376.304 1097.52C377.052 1097.75 377.838 1097.84 378.619 1097.78C378.899 1097.76 379.178 1097.72 379.455 1097.67ZM164.478 1100.42L176.914 1161.9C175.509 1162.41 174.336 1163.41 173.61 1164.72L131.525 1149.07L161.947 1099.74C162.728 1100.16 163.593 1100.4 164.478 1100.45L164.478 1100.42ZM26.3701 1100.59L50.6134 1153.32L-31.9466 1176.95C-32.2524 1176.27 -32.6793 1175.65 -33.2066 1175.12L21.7914 1100.12C22.8287 1100.67 23.9997 1100.91 25.1682 1100.82C25.5747 1100.79 25.9774 1100.73 26.3702 1100.62L26.3701 1100.59ZM784.038 1334.61L918.624 1277.45C918.794 1277.72 918.982 1277.98 919.187 1278.22L861.785 1356.8C860.656 1356.05 859.31 1355.7 857.958 1355.79C856.398 1355.91 854.941 1356.62 853.887 1357.77L784.038 1334.61ZM870.42 1124.83L962.745 1224.31L925.781 1268.44C925.009 1268.18 924.194 1268.09 923.385 1268.16C923.124 1268.18 922.866 1268.22 922.61 1268.27L869.272 1125.95C869.698 1125.62 870.084 1125.25 870.42 1124.83ZM930.04 1273.77C930.01 1273.37 929.937 1272.96 929.822 1272.57L1080.63 1276.69L973.815 1298.29L929.267 1277.31C929.88 1276.24 930.149 1275.01 930.04 1273.77ZM972.351 1299.45L865.664 1355.21L920.598 1279.45C921.727 1280.2 923.072 1280.56 924.424 1280.46C925.823 1280.35 927.14 1279.76 928.15 1278.79L972.351 1299.45ZM782.301 1333.44L766.025 1322.43C766.497 1321.45 766.697 1320.36 766.605 1319.27L766.605 1319.03L910.819 1278.87L782.301 1333.44ZM780.326 1334.28L745.236 1365.3C744.675 1364.38 743.881 1363.63 742.935 1363.12L759.236 1325.8C759.812 1325.92 760.403 1325.96 760.99 1325.91C762.531 1325.78 763.967 1325.08 765.01 1323.94L780.326 1334.28ZM735.903 1363.92L659.583 1307.52L659.583 1307.45L754.43 1318.3C754.252 1318.97 754.192 1319.66 754.253 1320.34C754.334 1321.36 754.668 1322.34 755.225 1323.19C755.781 1324.05 756.543 1324.75 757.44 1325.24L741.129 1362.54C740.555 1362.42 739.968 1362.39 739.385 1362.43C738.096 1362.55 736.877 1363.07 735.903 1363.92ZM554.032 1107.9L539.262 1207.53L538.752 1207.53C538.281 1207.57 537.816 1207.67 537.367 1207.81L500.873 1134.61L550.997 1105.81C551.781 1106.78 552.838 1107.5 554.032 1107.86L554.032 1107.9ZM-32.1424 1182.5L78.0938 1222.92C77.9759 1223.49 77.9397 1224.08 77.9871 1224.67C78.1056 1226.26 78.8422 1227.75 80.0396 1228.8L41.7019 1288.91L-33.259 1183.97C-32.8132 1183.53 -32.4368 1183.02 -32.1425 1182.46L-32.1424 1182.5ZM-85.7246 1318.97L41.8146 1292.15L59.2261 1316.56C58.5701 1317.19 58.0636 1317.96 57.7436 1318.81C57.4237 1319.67 57.2983 1320.58 57.3766 1321.49C57.4501 1322.37 57.7138 1323.22 58.1495 1323.99L-85.5611 1319.18L-85.7246 1318.97ZM66.4506 1315.54C66.1993 1315.4 65.9362 1315.29 65.6645 1315.19L83.7352 1230.31C84.0304 1230.33 84.3272 1230.33 84.6223 1230.31C86.1017 1230.19 87.4873 1229.54 88.5209 1228.47L115.528 1250.41L66.4506 1315.54ZM118.004 1250.13L175.972 1173.17C176.754 1173.6 177.622 1173.85 178.513 1173.91L189.342 1304.42C188.32 1304.66 187.378 1305.16 186.604 1305.87L118.004 1250.13ZM648.207 1304.8C648.208 1304.91 648.208 1305.02 648.208 1305.13L527.888 1325.92C527.512 1325.1 526.956 1324.37 526.26 1323.79L580.073 1235.93L648.474 1302.34C648.241 1303.12 648.164 1303.93 648.248 1304.74L648.207 1304.8ZM407.553 1184.88C407.704 1185.71 408.025 1186.5 408.495 1187.2C408.966 1187.9 409.577 1188.49 410.289 1188.94L376.063 1228.72L336.693 1192.15C337.31 1191.36 337.72 1190.42 337.887 1189.43L407.553 1184.88ZM519.488 1323.05L463.644 1246.56L534.022 1216.77C534.806 1218.06 536.041 1219.01 537.487 1219.45L537.208 1221.35L522.411 1322.29L521.912 1322.29C521.078 1322.36 520.266 1322.6 519.528 1322.99L519.488 1323.05ZM462.508 1245.15L419.281 1186.05C419.404 1185.76 419.502 1185.47 419.574 1185.16L533.113 1213.13C533.078 1213.49 533.079 1213.85 533.116 1214.21C533.149 1214.55 533.208 1214.89 533.293 1215.23L462.508 1245.15ZM460.797 1245.88L420.289 1263C419.823 1262.26 419.207 1261.64 418.481 1261.16C417.755 1260.69 416.937 1260.37 416.08 1260.24L416.466 1232.03L417.058 1188.81C417.509 1188.51 417.916 1188.14 418.267 1187.73L460.797 1245.88ZM377.393 1229.93L412.024 1189.68C412.689 1189.85 413.378 1189.92 414.064 1189.87C414.446 1189.84 414.825 1189.77 415.195 1189.66L414.63 1231.69L414.234 1260.23C413.165 1260.38 412.152 1260.8 411.302 1261.47L377.393 1229.93ZM544.208 1217.3L578.5 1235.06L524.758 1322.84C524.554 1322.75 524.346 1322.68 524.135 1322.61L539.272 1219.81C539.438 1219.82 539.605 1219.82 539.771 1219.81C540.659 1219.73 541.52 1219.46 542.293 1219.02C543.067 1218.58 543.734 1217.97 544.249 1217.24L544.208 1217.3ZM517.556 1324.66L420.858 1268.48C421.181 1267.62 421.31 1266.71 421.236 1265.8C421.204 1265.41 421.135 1265.03 421.028 1264.66L461.893 1247.37L518.033 1324.12C517.901 1324.23 517.749 1324.41 517.597 1324.6L517.556 1324.66ZM409.067 1266.75C409.099 1267.18 409.179 1267.61 409.305 1268.02L298.038 1323.16C297.917 1322.98 297.783 1322.81 297.639 1322.65L376.296 1231.24L410.175 1262.73C409.341 1263.9 408.949 1265.33 409.067 1266.75ZM296.269 1321.47C296.03 1321.32 295.781 1321.18 295.524 1321.06L331.318 1194.43C331.684 1194.47 332.053 1194.47 332.419 1194.43C333.521 1194.34 334.577 1193.96 335.474 1193.31L374.977 1229.99L296.269 1321.47ZM60.7516 1315.43L42.8997 1290.46L81.6232 1229.76L81.9497 1229.88L77.5828 1250.48L63.9297 1314.75C63.6345 1314.72 63.3382 1314.72 63.0431 1314.75C62.2447 1314.82 61.4685 1315.05 60.7615 1315.43L60.7516 1315.43ZM116.604 1248.98L89.5659 1227.01C90.0955 1225.98 90.3251 1224.83 90.2279 1223.68C90.1789 1223.06 90.0325 1222.44 89.7938 1221.86L174.142 1171.63C174.264 1171.78 174.394 1171.92 174.531 1172.05L116.604 1248.98ZM335.983 1183.78L384.411 1110.53L410.6 1178.36C409.76 1178.84 409.045 1179.52 408.516 1180.33C407.987 1181.14 407.658 1182.07 407.557 1183.03L337.993 1187.56C337.802 1186.1 337.088 1184.75 335.983 1183.78ZM385.689 1108.68L440.386 1025.92C440.591 1026.02 440.805 1026.11 441.019 1026.19L413.87 1177.54C413.636 1177.54 413.411 1177.54 413.177 1177.54C412.896 1177.57 412.617 1177.61 412.341 1177.67L385.689 1108.68ZM419.812 1183.19C419.757 1182.6 419.622 1182.01 419.408 1181.45L499.357 1135.52L535.799 1208.62C534.833 1209.3 534.079 1210.24 533.627 1211.33L419.812 1183.3L419.812 1183.19ZM545.448 1213.15C545.392 1212.45 545.213 1211.76 544.922 1211.11L622.147 1161.77C622.401 1162.04 622.678 1162.29 622.975 1162.51L579.545 1233.44L545.13 1215.61C545.388 1214.81 545.479 1213.97 545.397 1213.13L545.448 1213.15ZM628.341 1163.54L651.43 1298.88C650.629 1299.32 649.934 1299.92 649.396 1300.66L581.108 1234.31L624.528 1163.41C625.356 1163.72 626.24 1163.83 627.119 1163.76C627.515 1163.72 627.907 1163.64 628.29 1163.52L628.341 1163.54ZM649.594 1308.06L529.223 1437.12C528.394 1436.56 527.44 1436.21 526.446 1436.11L523.522 1334.55C525.036 1334.29 526.398 1333.48 527.339 1332.26C528.279 1331.05 528.728 1329.53 528.598 1328C528.597 1327.89 528.597 1327.77 528.546 1327.66L648.867 1306.88C649.05 1307.29 649.277 1307.67 649.543 1308.04L649.594 1308.06ZM523.246 1436.54L455.473 1328.7L516.358 1329.31C516.539 1330.66 517.164 1331.91 518.135 1332.86C519.106 1333.82 520.366 1334.42 521.718 1334.58L524.642 1436.14C524.147 1436.21 523.662 1436.34 523.195 1436.52L523.246 1436.54ZM454.336 1326.86L419.194 1270.9C419.518 1270.63 419.811 1270.32 420.067 1269.98L516.735 1326.15C516.571 1326.57 516.453 1327.01 516.383 1327.46L454.336 1326.86ZM452.185 1326.86L298.984 1325.33C298.983 1325.18 298.901 1325.01 298.849 1324.86L410.086 1269.74C410.693 1270.65 411.537 1271.39 412.527 1271.87C413.517 1272.35 414.617 1272.55 415.712 1272.45C416.388 1272.4 417.049 1272.23 417.668 1271.96L452.185 1326.86ZM290.193 1321.28L247.976 1262.34L328.286 1193.24C328.696 1193.55 329.142 1193.8 329.614 1194L293.83 1320.53C293.399 1320.49 292.965 1320.5 292.535 1320.54C291.7 1320.59 290.886 1320.82 290.141 1321.2L290.193 1321.28ZM246.921 1260.95L183.279 1172.21C184.04 1171.47 184.596 1170.54 184.891 1169.52L188.104 1169.97L325.795 1188.98C325.898 1190.08 326.3 1191.14 326.957 1192.03L246.921 1260.95ZM245.549 1262.14L194.862 1305.77C193.848 1304.9 192.575 1304.38 191.238 1304.3L180.398 1173.7C180.888 1173.58 181.363 1173.41 181.814 1173.18L245.549 1262.14ZM184.712 1310.03L69.5935 1319.58C69.333 1318.48 68.78 1317.48 67.9935 1316.67L117.009 1251.59L185.559 1307.29C185.058 1308.09 184.75 1309 184.66 1309.95L184.712 1310.03ZM-89.2878 1317.45L-36.0066 1185.56C-35.5478 1185.45 -35.1033 1185.28 -34.6826 1185.07L40.7796 1290.6L-87.1449 1318.02C-87.8135 1317.67 -88.5401 1317.45 -89.2881 1317.37L-89.2878 1317.45ZM51.4247 1155.09L80.8334 1219.08C79.986 1219.63 79.2885 1220.39 78.8017 1221.28L-31.4344 1180.87C-31.3118 1180.29 -31.2761 1179.7 -31.3282 1179.11C-31.3229 1179.02 -31.3232 1178.92 -31.3292 1178.82L51.4247 1155.09ZM53.1867 1154.59L96.0865 1142.31C96.4398 1143.09 96.955 1143.8 97.5981 1144.37C98.2412 1144.94 98.9977 1145.37 99.8184 1145.63L83.8173 1218.07L83.6849 1218.07C83.2783 1218.1 82.8756 1218.18 82.4824 1218.28L53.1867 1154.59ZM107.352 1142.18L128.838 1150.16L86.6226 1218.61C86.2941 1218.47 85.9522 1218.36 85.6021 1218.28L101.573 1145.94C101.767 1145.95 101.961 1145.95 102.154 1145.94C103.287 1145.83 104.368 1145.41 105.276 1144.72C106.184 1144.03 106.885 1143.11 107.3 1142.05L107.352 1142.18ZM130.562 1150.8L172.984 1166.57C172.861 1167.16 172.825 1167.76 172.877 1168.36C172.919 1168.93 173.044 1169.5 173.25 1170.04L88.6866 1220.02C88.5078 1219.81 88.3125 1219.62 88.1033 1219.45L130.562 1150.8ZM326.042 1186.67C325.992 1186.86 325.941 1187.04 325.901 1187.22L219.522 1172.53L185.14 1167.78C185.139 1167.64 185.139 1167.49 185.138 1167.34C185.013 1165.75 184.268 1164.27 183.065 1163.21C181.861 1162.16 180.293 1161.62 178.697 1161.71L166.343 1100.38C167.53 1100.05 168.593 1099.38 169.395 1098.44L326.042 1186.67ZM384.286 1091.29C384.185 1090.05 383.708 1088.87 382.919 1087.91L435.74 1029.81L384.867 1106.73L381.176 1097.15C382.214 1096.56 383.057 1095.67 383.601 1094.61C384.144 1093.55 384.365 1092.35 384.235 1091.16L384.286 1091.29ZM444.884 1026.36L498.547 1134.01L418.507 1180C417.768 1179.06 416.775 1178.35 415.645 1177.97L442.805 1026.64C443.036 1026.65 443.267 1026.65 443.498 1026.64C443.957 1026.55 444.405 1026.41 444.832 1026.22L444.884 1026.36ZM447.376 1024.81L550.415 1099.29C549.882 1100.31 549.649 1101.47 549.743 1102.61C549.797 1103.21 549.932 1103.8 550.146 1104.36L500.114 1133.07L446.45 1025.39C446.763 1025.18 447.056 1024.94 447.325 1024.68L447.376 1024.81ZM560.093 1106.58L621.308 1154.7C620.693 1155.77 620.42 1157.01 620.525 1158.25C620.584 1159.01 620.787 1159.75 621.123 1160.43L543.897 1209.6C543.14 1208.73 542.152 1208.09 541.047 1207.75L555.827 1108.11L556.326 1108.11C557.719 1107.99 559.03 1107.41 560.042 1106.44L560.093 1106.58ZM705.437 1254.41L658.283 1299.58C657.055 1298.58 655.49 1298.1 653.915 1298.23C653.647 1298.26 653.382 1298.3 653.12 1298.36L629.949 1162.76L630.061 1162.69L705.437 1254.41ZM706.584 1255.81L755.92 1315.8C755.664 1316.09 755.433 1316.4 755.23 1316.73L660.383 1305.88C660.562 1305.22 660.622 1304.52 660.56 1303.84C660.474 1302.79 660.12 1301.77 659.531 1300.9L706.584 1255.81ZM707.915 1254.59L774.438 1193.31C775.082 1193.85 775.83 1194.25 776.634 1194.49L775.718 1201.21L760.399 1313.78L759.971 1313.78C759.034 1313.86 758.127 1314.16 757.323 1314.64L707.915 1254.59ZM783.223 1192.37L816.747 1212.17L762.531 1314.13L762.194 1314.02L777.573 1201.05L778.429 1194.73L778.887 1194.73C779.736 1194.64 780.555 1194.37 781.293 1193.94C782.031 1193.51 782.67 1192.93 783.171 1192.24L783.223 1192.37ZM818.3 1213.1L918.229 1272.11C917.859 1273 917.709 1273.97 917.79 1274.93L917.791 1275.18L766.028 1317.42C765.599 1316.45 764.925 1315.61 764.073 1314.98L818.3 1213.1ZM819.151 1211.49L863.964 1127.21C864.629 1127.39 865.318 1127.45 866.004 1127.4C866.579 1127.35 867.145 1127.22 867.685 1127.01L920.849 1268.91C920.161 1269.3 919.551 1269.81 919.049 1270.42L819.151 1211.49ZM998.909 1182.1L963.586 1222.79L871.312 1123.35C871.432 1123.02 871.523 1122.68 871.584 1122.33L995.985 1176.38C995.96 1176.67 995.961 1176.97 995.987 1177.26C996.063 1178.21 996.363 1179.14 996.861 1179.96C997.36 1180.77 998.044 1181.46 998.858 1181.97L998.909 1182.1ZM964.237 1225.54L1082.01 1270.01C1081.25 1271.16 1080.89 1272.53 1081 1273.9C1081 1274.08 1081 1274.26 1081.08 1274.43L929.021 1270.85C928.582 1270.19 928.019 1269.62 927.364 1269.17L964.237 1225.54ZM985.329 1345.77C984.771 1345.67 984.202 1345.63 983.636 1345.67C982.243 1345.79 980.931 1346.38 979.92 1347.35L975.267 1299.4L1082.54 1277.43C1082.97 1277.92 1083.47 1278.33 1084.03 1278.67L985.329 1345.77ZM863.953 1359.11L863.831 1358.91L973.813 1300.54L978.804 1348.77C978.191 1349.84 977.918 1351.08 978.02 1352.31C978.021 1352.53 978.073 1352.75 978.114 1352.96L863.953 1359.11ZM746.085 1369.21C746.125 1368.79 746.123 1368.37 746.081 1367.96C746.049 1367.61 745.987 1367.27 745.894 1366.94L782.063 1335.46L852.934 1359.32C852.903 1359.37 852.876 1359.43 852.853 1359.49L746.085 1369.21ZM302.945 1327.06L453.322 1328.6L521.71 1437.46C521.332 1437.79 520.992 1438.15 520.694 1438.56L302.945 1327.06ZM196.977 1310.36C196.986 1310.17 196.986 1309.98 196.975 1309.79C196.894 1308.81 196.576 1307.86 196.048 1307.02L246.613 1263.49L288.738 1322.21C288.009 1322.93 287.466 1323.81 287.156 1324.78L196.977 1310.36ZM95.9583 1137.39C95.604 1138.27 95.4606 1139.22 95.5394 1140.17C95.5341 1140.27 95.5344 1140.37 95.5403 1140.47L52.3656 1152.84L28.0195 1099.91C28.5594 1099.55 29.0395 1099.11 29.4423 1098.6L95.9583 1137.39ZM160.148 1098.43L160.455 1098.75L129.79 1148.49L107.783 1140.31C107.813 1139.95 107.812 1139.58 107.78 1139.21C107.712 1138.35 107.459 1137.51 107.038 1136.76L160.148 1098.43ZM372.088 1092.64C372.217 1093.47 372.517 1094.27 372.968 1094.98C373.42 1095.69 374.013 1096.3 374.711 1096.77L333.725 1182.45C332.977 1182.22 332.191 1182.13 331.41 1182.2C330.489 1182.28 329.596 1182.56 328.8 1183.03C328.003 1183.49 327.323 1184.14 326.811 1184.91L170.368 1096.73C170.665 1096.04 170.836 1095.3 170.87 1094.56L170.871 1094.66L372.088 1092.64ZM772.249 1188.02C772.219 1188.34 772.22 1188.66 772.252 1188.97C772.344 1190 772.699 1190.99 773.281 1191.84L706.809 1253.05L631.474 1161.46C631.919 1160.91 632.262 1160.27 632.488 1159.6L772.249 1188.02ZM861.339 1125.64C861.63 1125.91 861.949 1126.15 862.289 1126.36L817.577 1210.45L784.104 1190.67C784.44 1189.81 784.573 1188.88 784.493 1187.96C784.423 1187.05 784.144 1186.16 783.679 1185.38L861.339 1125.64ZM1003.36 1182.78L1084.98 1267.7C1084.35 1267.94 1083.77 1268.28 1083.26 1268.72L965.047 1223.79L1000.59 1182.71C1001.27 1182.89 1001.98 1182.96 1002.68 1182.9C1002.85 1182.86 1003.08 1182.82 1003.32 1182.78L1003.36 1182.78Z" fill="url(#paint0_linear_189_2515)"/>
</g>
<defs>
<linearGradient id="paint0_linear_189_2515" x1="497.727" y1="1448.12" x2="500.457" y2="1014.6" gradientUnits="userSpaceOnUse">
<stop stop-color="#F51F36"/>
<stop offset="1" stop-color="#F51F36" stop-opacity="0"/>
</linearGradient>
<clipPath id="clip0_189_2515">
<rect width="1094" height="170" fill="white" transform="translate(0 1012)"/>
</clipPath>
</defs>
</svg>
