<svg width="295" height="52" viewBox="0 0 295 52" fill="none" xmlns="http://www.w3.org/2000/svg">
<path d="M82.2824 21.5386C82.2824 26.9885 78.4156 30.2887 72.015 30.2887H65.9364V37.883H62.4211V12.7886H72.0185C78.4156 12.7886 82.2824 16.0887 82.2824 21.5386ZM78.7671 21.5386C78.7671 17.9527 76.4126 15.9094 71.9124 15.9094H65.9364V27.1678H71.9124C76.4126 27.1678 78.7671 25.1246 78.7671 21.5386Z" fill="white"/>
<path d="M103.089 18.5796V37.6672H101.435C101.222 37.6674 101.011 37.6256 100.814 37.5441C100.617 37.4626 100.438 37.343 100.287 37.1922C100.136 37.0414 100.017 36.8624 99.9353 36.6653C99.8539 36.4683 99.8121 36.2571 99.8123 36.0438V34.7844C98.4074 36.7663 96.0308 37.883 93.3297 37.883C88.3965 37.883 85.1195 35.1804 85.1195 29.5594V18.5796H88.5765V29.1741C88.5765 32.9203 90.4486 34.7951 93.7255 34.7951C97.3269 34.7951 99.6322 32.5617 99.6322 28.4534V18.5796H103.089Z" fill="white"/>
<path d="M122.951 26.8793V37.883H119.702V27.2761C119.702 23.523 117.943 21.6804 114.861 21.6804C111.41 21.6804 109.176 23.884 109.176 28.0356V37.883H105.927V18.7601H107.515C107.92 18.7601 108.308 18.9314 108.594 19.2364C108.88 19.5414 109.04 19.9551 109.04 20.3864V21.6482C110.361 19.7002 112.661 18.5796 115.505 18.5796C119.871 18.5814 122.951 21.2479 122.951 26.8793Z" fill="white"/>
<path d="M139.029 36.5694C138.004 37.4575 136.445 37.883 134.922 37.883C131.134 37.883 128.924 35.7868 128.924 31.9866V21.4751H125.788V18.5796H128.924V12.7886H132.409V18.5796H139.029V21.4751H132.409V31.86C132.409 33.8859 133.321 34.8575 135.196 34.8575C136.155 34.8682 137.048 34.3757 137.809 33.7896L139.029 36.5694Z" fill="white"/>
<path d="M141.867 28.2136C141.867 22.577 146.085 18.5796 151.815 18.5796C157.545 18.5796 161.728 22.577 161.728 28.2136C161.728 33.8503 157.547 37.883 151.815 37.883C146.083 37.883 141.867 33.8521 141.867 28.2136ZM158.232 28.2136C158.232 24.1827 155.493 21.5772 151.808 21.5772C148.123 21.5772 145.355 24.1827 145.355 28.2136C145.355 32.2446 148.132 34.8872 151.808 34.8872C155.484 34.8872 158.232 32.2464 158.232 28.2136Z" fill="white"/>
<path d="M195.775 21.7179C195.775 27.2406 191.732 30.6473 185.195 30.6473H179.584V37.883H174.968V12.7886H185.195C191.722 12.7886 195.775 16.1597 195.775 21.7179ZM191.124 21.7179C191.124 18.5616 189.029 16.7331 184.982 16.7331H179.584V26.6992H184.982C189.022 26.6992 191.117 24.8742 191.117 21.7179H191.124Z" fill="white"/>
<path d="M219.42 18.5796L210.736 39.7961C209.033 44.2447 206.672 45.6044 203.58 45.6044C201.74 45.6044 199.796 44.9437 198.613 43.8024L200.35 40.4204C201.214 41.2855 202.356 41.7714 203.545 41.7801C205.751 41.7801 206.629 39.7526 207.125 37.883L199.031 18.5796H203.547L209.38 33.1104L215.252 18.5869L219.42 18.5796Z" fill="white"/>
<path d="M253.468 26.9528V37.883H249.091V27.5244C249.091 24.1287 247.553 22.4849 244.898 22.4849C242.034 22.4849 240.041 24.4154 240.041 28.2039V37.883H235.673V27.5244C235.673 24.1287 234.137 22.4849 231.482 22.4849C228.581 22.4849 226.625 24.4154 226.625 28.2039V37.883H222.257V18.8025H224.841C225.259 18.803 225.659 18.9728 225.954 19.2747C226.249 19.5766 226.415 19.9859 226.415 20.4128V21.2338C227.811 19.5174 229.979 18.5796 232.528 18.5796C235.255 18.5796 237.526 19.6165 238.818 21.7647C240.321 19.7988 242.836 18.5796 245.806 18.5796C250.314 18.5955 253.468 21.1984 253.468 26.9528Z" fill="white"/>
<path d="M278.058 35.7656L279.708 32.4147C281.322 33.5083 283.79 34.284 286.098 34.284C288.82 34.284 289.946 33.5083 289.946 32.2015C289.946 28.6026 278.608 31.9901 278.608 24.4742C278.608 20.9084 281.736 18.5796 286.682 18.5796C289.121 18.5796 291.905 19.1806 293.553 20.2026L291.903 23.5553C290.31 22.5982 288.491 22.1104 286.646 22.1454C284.035 22.1454 282.799 23.0189 282.799 24.2611C282.799 28.0732 294.137 24.6856 294.137 32.0618C294.137 35.5909 290.975 37.883 285.821 37.883C282.765 37.883 279.708 36.9658 278.058 35.7656Z" fill="white"/>
<path d="M270.11 31.6182C269.218 33.0174 267.696 33.9129 265.748 34.114C263.004 33.8202 261.107 32.1341 260.635 29.6366H275.15C275.184 29.2134 275.22 28.6834 275.22 28.3301C275.22 22.4308 271.276 18.5796 265.866 18.5796C260.358 18.5796 256.305 22.6022 256.305 28.2234C256.305 33.6068 259.996 37.563 265.762 37.883C269.087 37.6976 271.723 36.3002 273.356 34.1175C273.921 33.361 274.364 32.5173 274.668 31.6182H270.11ZM265.863 22.1125C268.703 22.1125 270.748 23.9839 271.094 26.7053H260.596C261.013 23.9489 263.057 22.1125 265.863 22.1125Z" fill="white"/>
<path d="M50.1263 20.2686V51.154H24.5903V44.3978H43.5058V20.2686H50.1263Z" fill="white"/>
<path d="M0 26.0596V0H31.2106V6.7562H6.62043V26.0596H0Z" fill="white"/>
<path d="M18.9155 51.154V31.8506H0V38.6068H12.2951V51.154L18.9155 51.154Z" fill="white"/>
<path d="M50.1258 17.3731V0H34.0476V6.7562H43.5015V17.3731H50.1258Z" fill="white"/>
<path d="M25.5363 38.6068H24.5905V31.8506H25.5363C28.7428 31.8506 31.5331 28.3373 31.5331 25.2361C31.531 21.7135 29.3295 18.3382 25.5363 18.3382H18.9158V26.0596H12.2954V11.582L25.4813 11.5881C27.2351 11.5913 28.9709 11.9512 30.589 12.647C32.2071 13.3429 33.6755 14.361 34.9098 15.6429C36.144 16.9247 37.1198 18.4449 37.7809 20.1161C38.442 21.7872 38.7905 23.5764 38.7771 25.3806C38.7087 32.9109 32.8483 38.6068 25.5363 38.6068Z" fill="white"/>
</svg>
